<svg height="1024" node-id="1" sillyvg="true" template-height="1024" template-width="1024" version="1.1" viewBox="0 0 1024 1024" width="1024" xmlns="http://www.w3.org/2000/svg" xmlns:xlink="http://www.w3.org/1999/xlink"><defs node-id="37"><linearGradient gradientUnits="userSpaceOnUse" id="paint0_linear_1_668" node-id="33" spreadMethod="pad" x1="706.054" x2="761.885" y1="215.677" y2="126.105"><stop offset="0" stop-color="#0e051e"/><stop offset="1" stop-color="#2e223a"/></linearGradient></defs><path d="M 0.00 0.00 L 1024.00 0.00 L 1024.00 1024.00 L 0.00 1024.00 Z" fill="#ffffff" fill-rule="nonzero" node-id="46" stroke="none" target-height="1024" target-width="1024" target-x="0" target-y="0"/><path d="M 318.30 639.33 C 320.65 639.99 323.11 640.47 325.18 641.81 C 324.92 644.28 324.64 645.21 325.44 647.60 L 323.58 658.80 C 322.01 665.38 321.01 664.06 316.23 668.34 L 318.30 639.33 Z" fill="#000001" fill-rule="nonzero" node-id="48" stroke="none" target-height="29.01001" target-width="9.21402" target-x="316.231" target-y="639.333"/><path d="M 237.45 152.29 C 238.74 164.15 236.98 174.14 247.43 182.43 C 257.74 190.62 269.88 184.34 280.74 187.75 C 277.29 200.12 277.16 210.36 283.70 221.75 C 286.33 226.34 289.88 230.04 293.55 233.80 C 296.67 236.19 299.84 239.05 303.34 240.80 L 301.27 243.75 C 302.75 246.46 304.07 249.67 306.23 251.90 L 298.88 265.58 L 289.30 281.03 L 288.72 277.82 L 287.96 279.19 L 286.35 281.78 C 280.42 290.68 273.56 306.22 270.93 316.50 C 269.53 321.86 266.71 326.64 265.33 331.89 C 264.44 335.27 263.43 338.81 262.18 342.04 L 260.78 347.72 C 260.31 350.02 260.69 348.70 259.90 350.52 C 258.80 353.09 258.50 356.40 257.63 359.18 L 256.94 362.68 L 256.57 364.36 C 256.04 366.91 256.36 369.51 255.35 371.90 C 253.51 376.19 255.71 380.65 253.10 385.06 L 253.28 386.37 C 254.03 392.24 252.41 397.34 254.14 403.25 C 254.96 406.10 254.83 407.49 254.14 410.25 L 249.93 408.85 L 248.86 398.80 L 247.15 398.35 C 247.43 400.52 247.80 402.54 247.56 404.72 C 238.49 371.08 265.80 310.93 279.92 280.50 C 273.00 278.02 266.06 275.07 259.74 271.31 C 240.90 260.09 229.00 241.22 224.17 220.19 C 218.89 197.24 225.12 171.87 237.45 152.29 Z" fill="#060219" fill-rule="nonzero" node-id="50" stroke="none" target-height="257.956" target-width="87.34401" target-x="218.89" target-y="152.292"/><path d="M 237.45 152.29 C 250.67 132.39 270.05 119.36 293.44 114.51 C 316.27 109.78 339.66 114.29 359.24 127.08 C 372.45 135.71 380.47 147.25 387.57 161.00 C 375.63 167.28 364.80 176.41 353.83 184.30 L 337.75 200.16 L 303.34 240.80 C 299.84 239.05 296.67 236.19 293.55 233.80 C 289.88 230.04 286.33 226.34 283.70 221.75 C 277.16 210.36 277.29 200.12 280.74 187.75 C 269.88 184.34 257.74 190.62 247.43 182.43 C 236.98 174.14 238.74 164.15 237.45 152.29 Z" fill="#271834" fill-rule="nonzero" node-id="52" stroke="none" target-height="131.025" target-width="150.59" target-x="236.982" target-y="109.778"/><path d="M 280.74 187.75 C 284.95 179.06 290.53 171.35 298.88 166.30 C 307.22 161.27 318.00 159.50 327.46 162.09 C 339.99 165.51 347.38 173.52 353.83 184.30 L 337.75 200.16 L 303.34 240.80 C 299.84 239.05 296.67 236.19 293.55 233.80 C 289.88 230.04 286.33 226.34 283.70 221.75 C 277.16 210.36 277.29 200.12 280.74 187.75 Z" fill="#e4148f" fill-rule="nonzero" node-id="54" stroke="none" target-height="81.300995" target-width="76.675995" target-x="277.156" target-y="159.502"/><path d="M 293.55 233.80 C 295.62 231.51 296.25 228.05 297.45 225.21 C 299.74 219.67 302.35 214.55 305.88 209.68 C 310.10 203.88 316.60 196.57 324.08 195.60 C 330.70 194.73 332.68 196.44 337.75 200.16 L 303.34 240.80 C 299.84 239.05 296.67 236.19 293.55 233.80 Z" fill="#d01d7c" fill-rule="nonzero" node-id="56" stroke="none" target-height="46.069" target-width="44.203003" target-x="293.551" target-y="194.734"/><path d="M 647.27 149.11 C 653.58 134.79 669.43 123.16 683.74 117.64 C 706.34 108.90 729.99 110.62 751.89 120.73 C 774.47 131.16 791.45 150.78 799.78 174.05 C 806.07 191.54 806.78 211.99 800.25 229.54 L 799.78 229.87 L 797.60 228.97 L 797.25 231.15 C 796.18 233.26 796.18 232.32 796.18 234.65 L 794.10 236.05 L 794.43 238.85 L 791.99 234.66 L 786.39 238.86 C 777.81 236.73 771.32 228.63 763.58 224.67 C 758.79 222.23 756.14 219.36 752.65 215.38 C 751.33 218.54 750.17 222.32 748.16 225.09 C 743.89 231.72 735.42 239.02 727.64 241.04 C 725.16 241.68 724.08 240.95 722.06 239.65 C 712.94 223.96 700.24 210.09 688.17 196.66 L 688.08 196.72 L 679.61 191.36 C 676.55 191.99 673.16 192.36 670.44 193.86 L 643.88 173.32 C 644.16 168.50 641.99 165.10 639.64 161.11 C 643.52 158.17 645.20 153.39 647.27 149.11 Z" fill="url(#paint0_linear_1_668)" fill-rule="nonzero" node-id="58" stroke="none" target-height="132.78198" target-width="167.13403" target-x="639.644" target-y="108.898"/><path d="M 676.09 186.35 L 676.55 185.56 C 682.65 174.99 684.00 165.75 697.54 161.97 C 707.74 159.12 719.45 160.45 728.61 165.73 C 739.63 172.07 749.59 184.29 752.43 196.83 C 753.79 202.88 754.20 209.36 752.65 215.38 C 751.33 218.54 750.17 222.32 748.16 225.09 C 743.89 231.72 735.42 239.02 727.64 241.04 C 725.16 241.68 724.08 240.95 722.07 239.65 C 712.94 223.96 700.24 210.09 688.17 196.66 L 688.08 196.72 L 679.61 191.36 L 676.09 186.35 Z" fill="#e4148f" fill-rule="nonzero" node-id="60" stroke="none" target-height="82.558" target-width="78.112" target-x="676.089" target-y="159.122"/><path d="M 688.17 196.66 C 698.88 199.60 708.64 206.07 719.04 210.20 C 725.98 212.95 736.15 214.54 742.26 218.37 C 744.84 219.98 746.53 222.61 748.16 225.09 C 743.89 231.72 735.42 239.02 727.64 241.04 C 725.16 241.68 724.08 240.95 722.07 239.65 C 712.94 223.96 700.24 210.09 688.17 196.66 Z" fill="#d01d7c" fill-rule="nonzero" node-id="62" stroke="none" target-height="45.01999" target-width="59.983032" target-x="688.175" target-y="196.66"/><path d="M 247.56 404.72 C 247.80 402.54 247.43 400.52 247.15 398.36 L 248.86 398.80 L 249.93 408.85 L 254.14 410.25 C 254.83 407.49 254.96 406.10 254.14 403.25 C 252.41 397.34 254.03 392.24 253.28 386.37 L 253.10 385.06 C 255.71 380.65 253.51 376.19 255.35 371.90 C 256.36 369.51 256.04 366.91 256.57 364.36 L 256.94 362.68 L 257.63 359.18 C 258.50 356.40 258.80 353.09 259.90 350.52 C 260.69 348.70 260.31 350.02 260.78 347.72 L 262.18 342.04 C 263.43 338.81 264.44 335.27 265.33 331.89 C 266.71 326.64 269.53 321.86 270.93 316.50 C 273.56 306.22 280.42 290.68 286.35 281.78 L 287.96 279.19 L 288.72 277.82 L 289.30 281.03 C 266.81 326.26 245.23 381.73 262.14 432.16 C 265.46 442.10 270.42 450.33 276.39 458.87 C 274.56 462.00 273.74 463.99 273.46 467.61 C 275.25 470.06 276.80 472.36 278.14 475.08 L 278.48 475.95 C 280.96 481.61 286.13 486.33 290.40 490.72 C 307.35 508.19 327.51 521.66 350.36 530.13 L 355.42 531.88 C 341.49 569.78 330.72 607.47 325.44 647.60 C 324.64 645.21 324.92 644.28 325.18 641.81 C 323.11 640.47 320.65 639.99 318.30 639.33 C 316.53 636.21 311.03 633.14 308.10 630.95 L 283.27 611.91 C 261.96 594.91 242.99 576.21 224.90 555.86 C 199.98 527.84 176.59 488.95 179.20 450.12 C 179.98 438.76 185.88 426.81 194.61 419.46 C 208.52 407.74 229.04 406.90 246.23 408.39 L 247.56 404.72 Z" fill="#030317" fill-rule="nonzero" node-id="64" stroke="none" target-height="369.774" target-width="178.82799" target-x="176.589" target-y="277.825"/><path d="M 752.65 215.38 C 756.14 219.36 758.79 222.23 763.58 224.67 C 771.32 228.63 777.81 236.73 786.39 238.86 L 791.99 234.66 L 794.43 238.85 L 794.10 236.05 L 796.18 234.65 C 796.18 232.32 796.18 233.26 797.25 231.15 L 797.60 228.97 L 799.78 229.87 L 799.32 231.46 C 793.72 250.14 780.37 266.60 763.06 275.69 L 748.12 281.88 C 768.28 328.03 790.59 387.36 771.27 437.32 C 756.35 475.90 721.21 498.59 690.92 524.31 C 710.93 518.37 729.47 511.08 747.36 500.25 C 771.28 485.77 795.10 451.83 826.81 469.52 C 835.41 474.32 840.26 482.35 842.83 491.64 C 847.33 507.89 842.87 524.53 834.62 538.80 C 815.77 571.47 776.45 597.61 742.17 611.88 C 728.37 617.63 713.95 621.51 700.11 626.97 L 699.55 625.71 L 697.09 625.66 C 695.36 616.42 694.76 607.03 692.82 597.74 C 687.49 572.01 678.42 546.06 665.22 523.34 C 672.25 517.63 682.19 513.36 690.02 508.50 C 715.57 492.63 741.46 470.79 756.05 444.13 C 772.11 414.80 770.18 376.70 761.14 345.41 C 755.93 311.26 737.15 276.43 718.45 247.90 C 720.48 245.11 721.41 243.03 722.06 239.65 C 724.08 240.95 725.16 241.68 727.64 241.04 C 735.42 239.02 743.89 231.72 748.16 225.09 C 750.17 222.32 751.33 218.54 752.65 215.38 Z" fill="#060219" fill-rule="nonzero" node-id="66" stroke="none" target-height="411.58002" target-width="182.11096" target-x="665.215" target-y="215.385"/><path d="M 316.23 668.34 C 321.01 664.06 322.01 665.38 323.58 658.80 C 325.82 669.18 330.80 678.52 335.91 687.75 C 351.31 715.53 373.04 741.07 399.86 758.37 C 449.21 790.20 508.15 798.52 565.21 786.03 C 602.15 777.95 635.39 761.38 658.67 730.73 C 675.12 711.72 684.69 689.97 693.15 666.62 L 695.11 668.40 L 698.97 666.50 L 703.13 668.67 L 704.36 666.76 C 711.00 714.54 707.53 771.41 687.02 815.44 C 696.74 820.90 706.08 826.20 712.01 836.09 C 715.05 841.18 716.69 847.23 715.09 853.09 C 711.58 865.82 698.08 874.88 687.11 880.75 C 651.69 899.68 609.02 905.08 569.57 908.60 C 505.67 914.28 433.55 914.59 371.55 895.67 C 351.11 889.42 318.10 880.02 308.02 858.69 C 305.60 853.57 305.43 847.26 307.43 841.95 C 312.31 828.92 325.57 820.13 337.75 814.74 C 317.98 769.39 311.12 717.55 316.23 668.34 Z" fill="#030317" fill-rule="nonzero" node-id="68" stroke="none" target-height="255.79102" target-width="411.261" target-x="305.432" target-y="658.799"/><path d="M 337.75 814.74 C 350.21 839.32 370.25 867.30 397.85 875.95 C 409.32 879.54 424.69 879.27 435.49 873.54 C 445.30 868.35 452.61 859.34 455.80 848.72 C 461.08 831.16 453.92 812.67 451.47 795.32 C 494.09 805.12 534.88 805.02 577.42 794.81 C 573.21 816.64 565.43 843.89 579.10 863.78 C 585.20 872.66 593.58 876.78 603.96 878.63 C 619.37 881.38 634.51 875.38 646.69 866.28 C 664.51 852.94 677.17 835.18 687.02 815.44 C 696.74 820.90 706.08 826.20 712.01 836.09 C 715.05 841.18 716.69 847.23 715.09 853.09 C 711.58 865.82 698.08 874.88 687.11 880.75 C 651.69 899.68 609.02 905.08 569.57 908.60 C 505.67 914.28 433.55 914.59 371.55 895.67 C 351.11 889.42 318.10 880.02 308.02 858.69 C 305.60 853.57 305.43 847.26 307.43 841.95 C 312.31 828.92 325.57 820.13 337.75 814.74 Z" fill="#bf6f99" fill-rule="nonzero" node-id="70" stroke="none" target-height="119.77704" target-width="411.261" target-x="305.432" target-y="794.813"/><path d="M 298.89 265.58 C 298.12 276.56 296.81 287.75 297.15 298.76 C 298.57 343.60 313.47 396.13 343.28 430.23 C 383.60 476.34 438.17 505.12 499.56 509.25 C 502.67 509.46 506.75 509.94 509.25 507.73 L 515.65 507.34 L 515.86 508.32 C 516.94 509.04 517.05 509.23 518.50 509.59 C 527.22 511.76 542.10 508.39 550.94 506.97 C 611.99 497.17 670.10 470.29 718.11 431.15 C 735.57 416.92 751.25 397.36 757.15 375.29 C 759.78 365.40 760.08 355.52 761.14 345.42 C 770.18 376.70 772.11 414.80 756.05 444.13 C 741.46 470.79 715.57 492.63 690.02 508.50 C 682.19 513.36 672.25 517.63 665.22 523.34 C 678.42 546.06 687.49 572.01 692.82 597.74 C 694.76 607.03 695.36 616.42 697.09 625.66 L 699.55 625.71 L 700.11 626.97 L 704.37 666.76 L 703.13 668.67 L 698.97 666.50 L 695.11 668.40 L 693.15 666.62 C 684.69 689.97 675.12 711.72 658.67 730.73 C 635.39 761.38 602.16 777.95 565.21 786.03 C 508.15 798.52 449.21 790.20 399.86 758.37 C 373.04 741.07 351.31 715.53 335.91 687.75 C 330.80 678.52 325.82 669.18 323.58 658.80 L 325.44 647.60 C 330.72 607.47 341.49 569.78 355.42 531.88 L 350.36 530.13 C 327.51 521.66 307.35 508.19 290.40 490.72 C 286.13 486.33 280.96 481.61 278.48 475.95 L 278.14 475.08 C 276.80 472.36 275.25 470.06 273.46 467.61 C 273.74 463.99 274.56 462.00 276.39 458.87 C 270.42 450.33 265.46 442.10 262.14 432.16 C 245.23 381.73 266.81 326.26 289.30 281.03 L 298.89 265.58 Z" fill="#cbcacb" fill-rule="nonzero" node-id="72" stroke="none" target-height="532.931" target-width="526.88" target-x="245.226" target-y="265.585"/><path d="M 276.39 458.87 C 295.94 480.31 316.70 496.03 342.44 509.32 C 350.14 513.30 362.58 517.29 368.85 522.92 C 364.63 525.45 360.40 526.60 355.51 525.39 C 348.37 523.63 341.09 519.62 334.57 516.28 C 313.88 505.69 294.30 491.80 278.14 475.08 C 276.80 472.36 275.25 470.06 273.46 467.61 C 273.74 463.99 274.56 462.00 276.39 458.87 Z" fill="#000001" fill-rule="nonzero" node-id="74" stroke="none" target-height="67.724" target-width="95.382996" target-x="273.464" target-y="458.873"/><path d="M 658.67 730.73 C 646.56 735.50 634.94 741.01 622.43 744.76 C 587.96 755.11 551.74 756.06 516.79 747.56 C 469.34 736.02 422.13 702.59 397.08 660.24 C 373.51 620.36 374.57 584.17 385.78 540.79 L 444.07 552.25 C 503.79 562.93 563.19 558.82 621.24 541.77 C 635.02 537.72 652.57 532.41 664.19 524.11 L 665.22 523.34 C 678.42 546.06 687.49 572.01 692.82 597.74 C 694.76 607.03 695.36 616.42 697.09 625.66 L 699.55 625.71 L 700.11 626.97 L 704.36 666.76 L 703.13 668.67 L 698.97 666.50 L 695.11 668.40 L 693.15 666.62 C 684.69 689.97 675.12 711.72 658.67 730.73 Z" fill="#fdfdfd" fill-rule="nonzero" node-id="76" stroke="none" target-height="232.71698" target-width="330.855" target-x="373.509" target-y="523.343"/><path d="M 697.09 625.66 L 699.55 625.71 L 700.11 626.97 L 704.36 666.76 L 703.13 668.67 L 698.97 666.50 L 695.11 668.40 L 693.15 666.62 C 697.09 652.05 697.74 640.68 697.09 625.66 Z" fill="#000001" fill-rule="nonzero" node-id="78" stroke="none" target-height="43.011963" target-width="11.208984" target-x="693.155" target-y="625.663"/><path d="M 387.57 161.00 C 449.23 127.43 517.79 117.53 585.84 137.32 C 603.68 142.51 624.31 150.56 639.64 161.11 C 641.99 165.10 644.16 168.50 643.88 173.32 L 670.44 193.86 C 673.16 192.36 676.55 191.99 679.61 191.36 L 688.08 196.72 L 688.17 196.66 C 700.24 210.09 712.94 223.96 722.06 239.65 C 721.41 243.03 720.48 245.11 718.45 247.90 C 737.15 276.43 755.93 311.26 761.14 345.42 C 760.08 355.52 759.78 365.40 757.15 375.29 C 751.25 397.36 735.57 416.92 718.11 431.15 C 670.10 470.29 611.98 497.17 550.94 506.97 C 542.10 508.39 527.21 511.76 518.50 509.59 C 517.05 509.23 516.94 509.04 515.86 508.32 L 515.65 507.34 L 509.25 507.73 C 506.75 509.94 502.67 509.46 499.55 509.25 C 438.17 505.12 383.60 476.34 343.27 430.23 C 313.47 396.13 298.57 343.60 297.15 298.76 C 296.81 287.75 298.12 276.56 298.88 265.58 L 306.23 251.90 C 304.07 249.67 302.75 246.46 301.27 243.75 L 303.34 240.80 L 337.75 200.16 L 353.83 184.30 C 364.80 176.41 375.63 167.28 387.57 161.00 Z" fill="#fdfdfd" fill-rule="nonzero" node-id="80" stroke="none" target-height="394.236" target-width="464.32397" target-x="296.815" target-y="117.526"/><path d="M 670.44 193.86 C 673.16 192.36 676.55 191.99 679.61 191.36 L 688.08 196.72 L 688.17 196.66 C 700.24 210.09 712.94 223.96 722.06 239.65 C 721.41 243.03 720.48 245.11 718.45 247.90 C 704.12 227.70 688.77 210.46 670.44 193.86 Z" fill="#000001" fill-rule="nonzero" node-id="82" stroke="none" target-height="56.531998" target-width="51.626038" target-x="670.438" target-y="191.364"/><path d="M 495.84 393.57 C 501.29 390.69 508.49 387.07 510.50 380.68 C 511.49 377.51 510.69 373.05 510.35 369.77 C 501.40 360.43 484.45 351.80 484.46 337.25 C 484.46 334.91 486.07 332.18 487.75 330.62 C 496.31 322.70 513.54 323.94 524.17 325.01 C 530.14 325.61 537.72 326.83 541.97 331.51 C 544.76 334.57 544.95 337.45 544.50 341.43 C 543.78 348.00 534.15 358.74 528.95 362.56 C 525.61 365.02 521.80 366.84 518.06 368.58 C 516.27 373.61 516.92 378.94 519.36 383.69 C 522.48 389.75 527.29 391.51 533.35 393.35 C 528.41 396.60 522.16 402.84 516.36 403.81 C 508.41 405.13 501.85 397.90 495.84 393.57 Z" fill="#000001" fill-rule="nonzero" node-id="84" stroke="none" target-height="82.43799" target-width="60.505035" target-x="484.447" target-y="322.696"/><path d="M 387.57 161.00 C 449.23 127.43 517.80 117.53 585.84 137.32 C 603.68 142.51 624.31 150.56 639.64 161.11 C 641.99 165.10 644.16 168.50 643.88 173.32 C 632.76 166.85 621.68 160.14 609.84 155.04 C 562.24 134.51 505.75 129.29 455.48 142.53 C 393.15 158.94 341.41 197.92 306.23 251.90 C 304.07 249.67 302.75 246.46 301.27 243.75 L 303.34 240.80 L 337.75 200.16 L 353.83 184.30 C 364.80 176.41 375.64 167.28 387.57 161.00 Z" fill="#000001" fill-rule="nonzero" node-id="86" stroke="none" target-height="134.377" target-width="342.885" target-x="301.273" target-y="117.526"/><path d="M 509.25 507.73 L 506.83 506.76 C 493.96 501.21 487.00 493.68 481.59 480.70 C 475.62 466.40 457.74 384.48 462.10 373.85 C 467.18 380.22 472.44 385.48 478.65 390.72 L 495.84 393.57 C 501.85 397.90 508.41 405.13 516.36 403.81 C 522.16 402.84 528.41 396.60 533.35 393.35 C 538.91 393.70 543.83 392.65 549.24 391.51 L 550.58 390.71 C 558.01 386.22 561.92 380.31 566.35 373.04 L 558.72 421.41 C 554.67 448.07 552.15 485.48 528.03 502.49 C 524.42 505.03 519.85 506.15 515.65 507.34 L 509.25 507.73 Z" fill="#000001" fill-rule="nonzero" node-id="88" stroke="none" target-height="134.686" target-width="108.606964" target-x="457.738" target-y="373.043"/><path d="M 483.12 443.62 C 484.95 442.21 487.17 441.00 489.41 440.33 C 503.02 436.27 508.13 444.17 518.50 449.70 C 519.59 447.63 520.76 445.80 522.53 444.22 C 528.24 439.10 535.18 435.03 542.99 435.20 L 545.38 438.00 C 542.02 453.41 536.91 474.55 522.59 483.35 C 518.47 485.89 513.04 486.77 508.34 485.35 C 500.00 482.83 493.36 473.03 489.99 465.52 C 486.85 458.57 484.89 451.01 483.12 443.62 Z" fill="#e4148f" fill-rule="nonzero" node-id="90" stroke="none" target-height="51.740997" target-width="62.257996" target-x="483.123" target-y="435.028"/><path d="M 478.65 390.72 L 495.84 393.57 C 501.85 397.90 508.41 405.13 516.36 403.81 C 522.16 402.84 528.41 396.60 533.35 393.35 C 538.91 393.70 543.83 392.65 549.24 391.51 C 548.44 406.84 548.50 422.95 545.38 438.00 L 542.99 435.20 C 535.18 435.03 528.24 439.10 522.53 444.22 C 520.76 445.80 519.59 447.63 518.50 449.70 C 508.13 444.17 503.02 436.27 489.41 440.33 C 487.17 441.00 484.95 442.21 483.12 443.62 L 478.65 390.72 Z" fill="#460511" fill-rule="nonzero" node-id="92" stroke="none" target-height="58.980988" target-width="70.59503" target-x="478.646" target-y="390.724"/><path d="M 597.55 237.03 C 612.69 236.44 625.28 237.18 639.61 242.98 C 670.12 255.35 694.96 280.15 707.52 310.61 C 715.67 330.39 717.03 356.06 708.58 376.00 C 699.85 396.62 684.69 408.32 664.41 416.47 L 658.54 418.08 C 646.47 421.17 629.74 422.57 618.75 415.73 C 604.65 406.95 600.46 377.46 593.18 362.45 C 586.02 347.66 576.47 334.95 567.20 321.45 C 561.37 312.94 554.15 303.63 552.00 293.32 C 549.61 281.88 552.02 269.61 558.49 259.93 C 567.46 246.46 582.22 240.24 597.55 237.03 Z" fill="#271834" fill-rule="nonzero" node-id="94" stroke="none" target-height="186.13202" target-width="167.414" target-x="549.614" target-y="236.443"/><path d="M 607.86 343.61 C 605.87 341.70 603.55 340.54 603.59 337.66 C 603.65 331.34 607.84 325.99 612.30 321.89 C 620.55 314.30 632.03 311.63 642.96 312.32 C 652.68 312.93 662.38 317.60 668.63 325.13 C 673.14 330.57 674.60 336.17 674.45 343.09 C 672.79 344.72 671.20 346.21 669.30 347.59 C 666.60 338.54 663.11 332.64 654.75 327.55 C 647.72 323.27 638.39 321.63 630.39 323.79 C 619.33 326.77 613.16 333.90 607.86 343.61 Z" fill="#fdfdfd" fill-rule="nonzero" node-id="96" stroke="none" target-height="35.959015" target-width="71.04297" target-x="603.554" target-y="311.628"/><path d="M 607.86 343.61 C 613.16 333.90 619.33 326.77 630.39 323.79 C 638.39 321.63 647.72 323.27 654.75 327.55 C 663.11 332.64 666.60 338.54 669.30 347.59 C 668.25 351.92 665.96 356.19 662.79 359.33 C 658.59 355.95 657.68 349.86 654.08 345.73 C 649.92 340.98 644.36 338.90 638.12 339.02 C 631.64 339.14 626.64 341.68 622.11 346.16 L 617.84 350.38 C 614.07 349.29 610.87 346.05 607.86 343.61 Z" fill="#000001" fill-rule="nonzero" node-id="98" stroke="none" target-height="37.700012" target-width="61.43701" target-x="607.863" target-y="321.632"/><path d="M 410.25 234.34 C 426.31 233.61 441.47 234.56 454.66 244.95 C 464.58 252.75 472.81 264.50 474.21 277.25 C 477.51 307.53 449.64 328.94 438.15 354.49 C 430.75 370.94 432.43 386.61 420.25 401.64 C 409.36 415.07 394.04 421.59 377.30 423.38 C 366.38 422.99 356.70 419.75 347.58 413.77 C 329.94 402.20 316.23 379.88 312.41 359.18 C 307.52 332.83 316.75 305.00 332.01 283.60 C 350.48 257.66 379.01 239.59 410.25 234.34 Z" fill="#271834" fill-rule="nonzero" node-id="100" stroke="none" target-height="189.77501" target-width="169.988" target-x="307.521" target-y="233.606"/><path d="M 359.60 350.16 L 356.24 351.39 C 354.78 350.13 353.09 349.22 352.64 347.28 C 351.54 342.62 356.05 333.59 358.72 329.79 C 364.82 321.16 374.81 315.07 385.30 313.68 C 395.82 312.28 407.47 313.95 416.00 320.69 C 422.08 325.51 428.92 334.53 429.82 342.39 L 424.04 347.43 C 417.69 336.60 412.85 327.36 399.79 323.88 C 391.45 321.66 382.98 323.04 375.67 327.48 C 368.04 332.12 362.43 337.82 360.32 346.71 L 359.60 350.16 Z" fill="#fdfdfd" fill-rule="nonzero" node-id="102" stroke="none" target-height="39.108" target-width="78.27899" target-x="351.538" target-y="312.282"/><path d="M 359.60 350.16 L 360.32 346.71 C 362.43 337.82 368.04 332.12 375.67 327.48 C 382.98 323.04 391.45 321.66 399.79 323.88 C 412.85 327.36 417.69 336.60 424.04 347.43 C 420.83 350.83 418.10 355.01 413.61 356.37 C 409.97 350.86 405.20 342.98 398.19 341.63 C 391.49 340.34 385.13 340.26 379.22 344.28 C 373.79 347.96 369.22 354.44 364.82 359.31 C 361.40 356.58 360.23 355.43 359.65 350.89 L 359.60 350.16 Z" fill="#000001" fill-rule="nonzero" node-id="104" stroke="none" target-height="37.651" target-width="64.44101" target-x="359.595" target-y="321.66"/></svg>